# xmcd CD database file
#
# Track frame offsets:
#	150
#	15212
#	33967
#	42700
#	55651
#	71869
#	91338
#	115095
#	133107
#	161008
#	172281
#	190981
#	202897
#	221479
#	237702
#	263998
#	281560
#	299539
#
# Disc length: 4162 seconds
#
# Revision: 1
# Processed by: cddbd v1.5.2PL0 Copyright (c) Steve Scherf et al.
# Submitted via: CDex 1.70beta2
#
DISCID=17104012
DTITLE=Moolenbeck, Willem [CDN-Soft Jazz) Waterloo, ON - Heart Songs
DYEAR=1900
DGENRE=Jazz
TTITLE0=Stardust
TTITLE1=Flower Song
TTITLE2=Seguidilla
TTITLE3=Summertime
TTITLE4=It Ain't Necessarily So
TTITLE5=Le Plus Que Lente
TTITLE6=Je Suis Titania
TTITLE7=Over the Rainbow
TTITLE8=Milonga Del Angel
TTITLE9=Musetta's Waltz
TTITLE10=Meditation
TTITLE11=Adagio
TTITLE12=Addio Del Passato
TTITLE13=One Hand one Heart
TTITLE14=Pieta, Signore
TTITLE15=Valse Hilda
TTITLE16=O Mio Babbino Cars
TTITLE17=Somewhere
EXTD=
EXTT0=
EXTT1=
EXTT2=
EXTT3=
EXTT4=
EXTT5=
EXTT6=
EXTT7=
EXTT8=
EXTT9=
EXTT10=
EXTT11=
EXTT12=
EXTT13=
EXTT14=
EXTT15=
EXTT16=
EXTT17=
PLAYORDER=
